Coordinates
version=1
nRows=43
nColumns=12
inDegrees=yes

Units are S.I. units (second, meters, Newtons, ...)
Angles are in degrees

endheader
time	SC_y	SC_z	SC_x	AC_y	AC_z	AC_x	GH_y	GH_z	GH_yy	EL_x	PS_y
       0.0              -50.04         -3.836          47.27          63.78         -16.87         -17.09          162.1          87.86          11.37          55.71          36.29
   0.04451              -50.04         -3.834          47.27          63.77         -16.87         -17.08          162.0          87.85          11.37          55.71          36.28
   0.08902              -50.04         -3.832          47.28          63.77         -16.87         -17.07          162.0          87.85          11.38          55.71          36.28
    0.1335              -50.03          -3.83          47.28          63.76         -16.87         -17.07          162.0          87.84          11.39          55.72          36.28
     0.178              -50.03         -3.828          47.29          63.76         -16.86         -17.06          161.9          87.83           11.4          55.72          36.28
    0.2226              -50.03         -3.826           47.3          63.75         -16.86         -17.06          161.9          87.83           11.4          55.72          36.27
    0.2671              -50.03         -3.823           47.3          63.74         -16.86         -17.05          161.9          87.82          11.41          55.73          36.27
    0.3116              -50.03         -3.821          47.31          63.74         -16.86         -17.04          161.8          87.81          11.42          55.73          36.27
    0.3561              -50.02         -3.818          47.32          63.73         -16.85         -17.03          161.8           87.8          11.43          55.74          36.26
    0.4006              -50.02         -3.815          47.32          63.72         -16.85         -17.02          161.8          87.79          11.44          55.74          36.26
    0.4451              -50.02         -3.812          47.33          63.72         -16.85         -17.02          161.7          87.78          11.45          55.75          36.26
    0.4896              -50.02         -3.809          47.34          63.71         -16.84         -17.01          161.7          87.77          11.47          55.75          36.25
    0.5341              -50.01         -3.805          47.35           63.7         -16.84         -16.99          161.6          87.76          11.48          55.76          36.25
    0.5787              -50.01         -3.801          47.36          63.69         -16.84         -16.98          161.6          87.74          11.49          55.77          36.24
    0.6232              -50.01         -3.797          47.37          63.68         -16.83         -16.97          161.5          87.73          11.51          55.77          36.24
    0.6677               -50.0         -3.792          47.39          63.67         -16.83         -16.96          161.4          87.72          11.53          55.78          36.23
    0.7122               -50.0         -3.787           47.4          63.65         -16.82         -16.94          161.4           87.7          11.55          55.79          36.22
    0.7567              -49.99         -3.782          47.42          63.64         -16.82         -16.93          161.3          87.68          11.57           55.8          36.22
    0.8012              -49.99         -3.776          47.43          63.63         -16.81         -16.91          161.2          87.66          11.59          55.81          36.21
    0.8457              -49.98         -3.769          47.45          63.61         -16.81         -16.89          161.1          87.64          11.61          55.82           36.2
    0.8902              -49.97         -3.762          47.47          63.59          -16.8         -16.87          161.0          87.62          11.64          55.83          36.19
    0.9347              -49.97         -3.754          47.49          63.57         -16.79         -16.84          160.9          87.59          11.67          55.84          36.18
    0.9793              -49.96         -3.745          47.51          63.55         -16.78         -16.82          160.8          87.56           11.7          55.86          36.17
     1.024              -49.95         -3.735          47.54          63.53         -16.77         -16.79          160.6          87.53          11.73          55.88          36.16
     1.068              -49.94         -3.724          47.57           63.5         -16.76         -16.76          160.5          87.49          11.77          55.89          36.15
     1.113              -49.93         -3.712           47.6          63.47         -16.75         -16.72          160.3          87.45          11.82          55.91          36.13
     1.157              -49.92         -3.699          47.64          63.44         -16.74         -16.68          160.1          87.41          11.87          55.94          36.12
     1.202              -49.91         -3.684          47.68           63.4         -16.72         -16.64          159.9          87.36          11.92          55.96           36.1
     1.246              -49.89         -3.666          47.73          63.36          -16.7         -16.59          159.6           87.3          11.99          55.99          36.07
     1.291              -49.88         -3.647          47.78          63.31         -16.68         -16.53          159.4          87.24          12.06          56.02          36.05
     1.335              -49.86         -3.625          47.84          63.25         -16.66         -16.46          159.0          87.17          12.14          56.06          36.02
      1.38              -49.83         -3.599          47.91          63.19         -16.64         -16.39          158.7          87.08          12.23           56.1          35.99
     1.424              -49.81          -3.57          47.99          63.12         -16.61          -16.3          158.3          86.99          12.34          56.15          35.95
     1.469              -49.78         -3.535          48.08          63.03         -16.57          -16.2          157.8          86.87          12.47          56.21          35.91
     1.513              -49.75         -3.495          48.19          62.93         -16.53         -16.08          157.2          86.74          12.61          56.28          35.86
     1.558               -49.7         -3.448          48.32          62.81         -16.49         -15.94          156.5          86.59          12.78          56.36           35.8
     1.602              -49.66         -3.392          48.47          62.68         -16.43         -15.78          155.7           86.4          12.99          56.45          35.73
     1.647               -49.6         -3.325          48.65          62.51         -16.36         -15.58          154.8          86.18          13.24          56.56          35.65
     1.691              -49.53         -3.243          48.87          62.31         -16.28         -15.34          153.6          85.91          13.53           56.7          35.55
     1.736              -49.44         -3.144          49.14          62.06         -16.18         -15.04          152.2          85.59           13.9          56.87          35.43
      1.78              -49.34         -3.021          49.48          61.76         -16.06         -14.68          150.4          85.18          14.35          57.07          35.27
     1.825               -49.2         -2.868          49.89          61.38         -15.91         -14.23          148.2          84.68          14.91          57.33          35.08
     1.869              -49.04         -2.675          50.41           60.9         -15.72         -13.66          145.5          84.05          15.61          57.65          34.84
